<svg width="390" height="88" viewBox="0 0 390 88" fill="none" xmlns="http://www.w3.org/2000/svg">
<path d="M3.47159 66.3636V78H1.01136V66.3636H3.47159ZM13.0852 81.4545C12.3011 81.4545 11.6288 81.3466 11.0682 81.1307C10.5114 80.9186 10.0682 80.6288 9.73864 80.2614C9.40909 79.8939 9.19508 79.4811 9.09659 79.0227L11.3352 78.7216C11.4034 78.8958 11.5114 79.0587 11.6591 79.2102C11.8068 79.3617 12.0019 79.483 12.2443 79.5739C12.4905 79.6686 12.7898 79.7159 13.142 79.7159C13.6686 79.7159 14.1023 79.5871 14.4432 79.3295C14.7879 79.0758 14.9602 78.6496 14.9602 78.0511V76.4545H14.858C14.7519 76.697 14.5928 76.9261 14.3807 77.142C14.1686 77.358 13.8958 77.5341 13.5625 77.6705C13.2292 77.8068 12.8314 77.875 12.3693 77.875C11.714 77.875 11.1174 77.7235 10.5795 77.4205C10.0455 77.1136 9.61932 76.6458 9.30114 76.017C8.98674 75.3845 8.82955 74.5852 8.82955 73.6193C8.82955 72.6307 8.99053 71.8049 9.3125 71.142C9.63447 70.4792 10.0625 69.983 10.5966 69.6534C11.1345 69.3239 11.7235 69.1591 12.3636 69.1591C12.8523 69.1591 13.2614 69.2424 13.5909 69.4091C13.9205 69.572 14.1856 69.7765 14.3864 70.0227C14.5909 70.2652 14.7481 70.5038 14.858 70.7386H14.9489V69.2727H17.3523V78.0852C17.3523 78.8277 17.1705 79.4489 16.8068 79.9489C16.4432 80.4489 15.9394 80.8239 15.2955 81.0739C14.6553 81.3277 13.9186 81.4545 13.0852 81.4545ZM13.1364 76.0568C13.5265 76.0568 13.8561 75.9602 14.125 75.767C14.3977 75.5701 14.6061 75.2898 14.75 74.9261C14.8977 74.5587 14.9716 74.1193 14.9716 73.608C14.9716 73.0966 14.8996 72.6534 14.7557 72.2784C14.6117 71.8996 14.4034 71.6061 14.1307 71.3977C13.858 71.1894 13.5265 71.0852 13.1364 71.0852C12.7386 71.0852 12.4034 71.1932 12.1307 71.4091C11.858 71.6212 11.6515 71.9167 11.5114 72.2955C11.3712 72.6742 11.3011 73.1117 11.3011 73.608C11.3011 74.1117 11.3712 74.5473 11.5114 74.9148C11.6553 75.2784 11.8617 75.5606 12.1307 75.7614C12.4034 75.9583 12.7386 76.0568 13.1364 76.0568ZM23.2557 78.1705C22.358 78.1705 21.5852 77.9886 20.9375 77.625C20.2936 77.2576 19.7973 76.7386 19.4489 76.0682C19.1004 75.3939 18.9261 74.5966 18.9261 73.6761C18.9261 72.7784 19.1004 71.9905 19.4489 71.3125C19.7973 70.6345 20.2879 70.1061 20.9205 69.7273C21.5568 69.3485 22.303 69.1591 23.1591 69.1591C23.7348 69.1591 24.2708 69.2519 24.767 69.4375C25.267 69.6193 25.7027 69.8939 26.0739 70.2614C26.4489 70.6288 26.7405 71.0909 26.9489 71.6477C27.1572 72.2008 27.2614 72.8485 27.2614 73.5909V74.2557H19.892V72.7557H24.983C24.983 72.4072 24.9072 72.0985 24.7557 71.8295C24.6042 71.5606 24.3939 71.3504 24.125 71.1989C23.8598 71.0436 23.5511 70.9659 23.1989 70.9659C22.8314 70.9659 22.5057 71.0511 22.2216 71.2216C21.9413 71.3883 21.7216 71.6136 21.5625 71.8977C21.4034 72.178 21.322 72.4905 21.3182 72.8352V74.2614C21.3182 74.6932 21.3977 75.0663 21.5568 75.3807C21.7197 75.6951 21.9489 75.9375 22.2443 76.108C22.5398 76.2784 22.8902 76.3636 23.2955 76.3636C23.5644 76.3636 23.8106 76.3258 24.0341 76.25C24.2576 76.1742 24.4489 76.0606 24.608 75.9091C24.767 75.7576 24.8883 75.572 24.9716 75.3523L27.2102 75.5C27.0966 76.0379 26.8636 76.5076 26.5114 76.9091C26.1629 77.3068 25.7121 77.6174 25.1591 77.8409C24.6098 78.0606 23.9754 78.1705 23.2557 78.1705ZM33.483 69.2727V71.0909H28.2273V69.2727H33.483ZM29.4205 67.1818H31.8409V75.3182C31.8409 75.5417 31.875 75.7159 31.9432 75.8409C32.0114 75.9621 32.1061 76.0473 32.2273 76.0966C32.3523 76.1458 32.4962 76.1705 32.6591 76.1705C32.7727 76.1705 32.8864 76.161 33 76.142C33.1136 76.1193 33.2008 76.1023 33.2614 76.0909L33.642 77.892C33.5208 77.9299 33.3504 77.9735 33.1307 78.0227C32.911 78.0758 32.6439 78.108 32.3295 78.1193C31.7462 78.142 31.2348 78.0644 30.7955 77.8864C30.3598 77.7083 30.0208 77.4318 29.7784 77.0568C29.536 76.6818 29.4167 76.2083 29.4205 75.6364V67.1818ZM38.7628 78V69.2727H41.0696V70.8125H41.1719C41.3537 70.3011 41.6567 69.8977 42.081 69.6023C42.5052 69.3068 43.0128 69.1591 43.6037 69.1591C44.2022 69.1591 44.7116 69.3087 45.1321 69.608C45.5526 69.9034 45.8329 70.3049 45.973 70.8125H46.0639C46.242 70.3125 46.5639 69.9129 47.0298 69.6136C47.4995 69.3106 48.0545 69.1591 48.6946 69.1591C49.509 69.1591 50.17 69.4186 50.6776 69.9375C51.1889 70.4527 51.4446 71.1837 51.4446 72.1307V78H49.0298V72.608C49.0298 72.1231 48.901 71.7595 48.6435 71.517C48.3859 71.2746 48.0639 71.1534 47.6776 71.1534C47.2382 71.1534 46.8954 71.2936 46.6491 71.5739C46.4029 71.8504 46.2798 72.2159 46.2798 72.6705V78H43.9332V72.5568C43.9332 72.1288 43.8101 71.7879 43.5639 71.5341C43.3215 71.2803 43.0014 71.1534 42.6037 71.1534C42.3348 71.1534 42.0923 71.2216 41.8764 71.358C41.6643 71.4905 41.4957 71.678 41.3707 71.9205C41.2457 72.1591 41.1832 72.4394 41.1832 72.7614V78H38.7628ZM54.5384 81.2727C54.2315 81.2727 53.9437 81.2481 53.6747 81.1989C53.4096 81.1534 53.1899 81.0947 53.0156 81.0227L53.5611 79.2159C53.8452 79.303 54.1009 79.3504 54.3281 79.358C54.5592 79.3655 54.758 79.3125 54.9247 79.1989C55.0952 79.0852 55.2334 78.892 55.3395 78.6193L55.4815 78.25L52.3509 69.2727H54.8963L56.7031 75.6818H56.794L58.6179 69.2727H61.1804L57.7884 78.9432C57.6255 79.4129 57.4039 79.822 57.1236 80.1705C56.8471 80.5227 56.4967 80.7936 56.0724 80.983C55.6482 81.1761 55.1368 81.2727 54.5384 81.2727ZM66.1222 78V69.2727H68.5426V78H66.1222ZM67.3381 68.1477C66.9782 68.1477 66.6695 68.0284 66.4119 67.7898C66.1581 67.5473 66.0312 67.2576 66.0312 66.9205C66.0312 66.5871 66.1581 66.3011 66.4119 66.0625C66.6695 65.8201 66.9782 65.6989 67.3381 65.6989C67.6979 65.6989 68.0047 65.8201 68.2585 66.0625C68.5161 66.3011 68.6449 66.5871 68.6449 66.9205C68.6449 67.2576 68.5161 67.5473 68.2585 67.7898C68.0047 68.0284 67.6979 68.1477 67.3381 68.1477ZM72.902 72.9545V78H70.4815V69.2727H72.7884V70.8125H72.8906C73.0838 70.3049 73.4077 69.9034 73.8622 69.608C74.3168 69.3087 74.8679 69.1591 75.5156 69.1591C76.1217 69.1591 76.6501 69.2917 77.1009 69.5568C77.5516 69.822 77.902 70.2008 78.152 70.6932C78.402 71.1818 78.527 71.7652 78.527 72.4432V78H76.1065V72.875C76.1103 72.3409 75.974 71.9242 75.6974 71.625C75.4209 71.322 75.0402 71.1705 74.5554 71.1705C74.2296 71.1705 73.9418 71.2405 73.6918 71.3807C73.4455 71.5208 73.2524 71.7254 73.1122 71.9943C72.9759 72.2595 72.9058 72.5795 72.902 72.9545ZM87.696 71.7614L85.4801 71.8977C85.4422 71.7083 85.3608 71.5379 85.2358 71.3864C85.1108 71.2311 84.946 71.108 84.7415 71.017C84.5407 70.9223 84.3002 70.875 84.0199 70.875C83.6449 70.875 83.3286 70.9545 83.071 71.1136C82.8134 71.2689 82.6847 71.4773 82.6847 71.7386C82.6847 71.947 82.768 72.1231 82.9347 72.267C83.1013 72.411 83.3873 72.5265 83.7926 72.6136L85.3722 72.9318C86.2206 73.1061 86.8532 73.3864 87.2699 73.7727C87.6866 74.1591 87.8949 74.6667 87.8949 75.2955C87.8949 75.8674 87.7263 76.3693 87.3892 76.8011C87.0559 77.233 86.5975 77.5701 86.0142 77.8125C85.4347 78.0511 84.7661 78.1705 84.0085 78.1705C82.8532 78.1705 81.9328 77.9299 81.2472 77.4489C80.5653 76.964 80.1657 76.3049 80.0483 75.4716L82.429 75.3466C82.5009 75.6989 82.6752 75.9678 82.9517 76.1534C83.2282 76.3352 83.5824 76.4261 84.0142 76.4261C84.4384 76.4261 84.7794 76.3447 85.0369 76.1818C85.2983 76.0152 85.4309 75.8011 85.4347 75.5398C85.4309 75.3201 85.3381 75.1402 85.1562 75C84.9744 74.8561 84.6941 74.7462 84.3153 74.6705L82.804 74.3693C81.9517 74.1989 81.3172 73.9034 80.9006 73.483C80.4877 73.0625 80.2812 72.5265 80.2812 71.875C80.2812 71.3144 80.4328 70.8314 80.7358 70.4261C81.0426 70.0208 81.4725 69.7083 82.0256 69.4886C82.5824 69.2689 83.2339 69.1591 83.9801 69.1591C85.0824 69.1591 85.9498 69.392 86.5824 69.858C87.2188 70.3239 87.59 70.9583 87.696 71.7614ZM95.0156 74.2841V69.2727H97.4361V78H95.1122V76.4148H95.0213C94.8243 76.9261 94.4967 77.3371 94.0384 77.6477C93.5838 77.9583 93.0289 78.1136 92.3736 78.1136C91.7902 78.1136 91.277 77.9811 90.8338 77.7159C90.3906 77.4508 90.044 77.0739 89.794 76.5852C89.5478 76.0966 89.4228 75.5114 89.419 74.8295V69.2727H91.8395V74.3977C91.8433 74.9129 91.9815 75.3201 92.2543 75.6193C92.527 75.9186 92.8925 76.0682 93.3509 76.0682C93.6425 76.0682 93.9152 76.0019 94.169 75.8693C94.4228 75.733 94.6274 75.5322 94.7827 75.267C94.9418 75.0019 95.0194 74.6742 95.0156 74.2841ZM99.3722 78V69.2727H101.719V70.7955H101.81C101.969 70.2538 102.236 69.8447 102.611 69.5682C102.986 69.2879 103.418 69.1477 103.906 69.1477C104.027 69.1477 104.158 69.1553 104.298 69.1705C104.438 69.1856 104.562 69.2064 104.668 69.233V71.3807C104.554 71.3466 104.397 71.3163 104.196 71.2898C103.995 71.2633 103.812 71.25 103.645 71.25C103.289 71.25 102.971 71.3277 102.69 71.483C102.414 71.6345 102.194 71.8466 102.031 72.1193C101.872 72.392 101.793 72.7064 101.793 73.0625V78H99.3722ZM108.158 78.1648C107.601 78.1648 107.105 78.0682 106.669 77.875C106.233 77.678 105.889 77.3883 105.635 77.0057C105.385 76.6193 105.26 76.1383 105.26 75.5625C105.26 75.0777 105.349 74.6705 105.527 74.3409C105.705 74.0114 105.947 73.7462 106.254 73.5455C106.561 73.3447 106.91 73.1932 107.3 73.0909C107.694 72.9886 108.107 72.9167 108.538 72.875C109.046 72.822 109.455 72.7727 109.766 72.7273C110.076 72.678 110.302 72.6061 110.442 72.5114C110.582 72.4167 110.652 72.2765 110.652 72.0909V72.0568C110.652 71.697 110.538 71.4186 110.311 71.2216C110.088 71.0246 109.769 70.9261 109.357 70.9261C108.921 70.9261 108.574 71.0227 108.317 71.2159C108.059 71.4053 107.889 71.6439 107.805 71.9318L105.567 71.75C105.68 71.2197 105.904 70.7614 106.237 70.375C106.571 69.9848 107 69.6856 107.527 69.4773C108.057 69.2652 108.671 69.1591 109.368 69.1591C109.853 69.1591 110.317 69.2159 110.76 69.3295C111.207 69.4432 111.603 69.6193 111.947 69.858C112.296 70.0966 112.571 70.4034 112.771 70.7784C112.972 71.1496 113.072 71.5947 113.072 72.1136V78H110.777V76.7898H110.709C110.569 77.0625 110.381 77.303 110.146 77.5114C109.911 77.7159 109.629 77.8769 109.3 77.9943C108.97 78.108 108.589 78.1648 108.158 78.1648ZM108.851 76.4943C109.207 76.4943 109.521 76.4242 109.794 76.2841C110.067 76.1402 110.281 75.947 110.436 75.7045C110.591 75.4621 110.669 75.1875 110.669 74.8807V73.9545C110.593 74.0038 110.489 74.0492 110.357 74.0909C110.228 74.1288 110.082 74.1648 109.919 74.1989C109.756 74.2292 109.593 74.2576 109.43 74.2841C109.268 74.3068 109.12 74.3277 108.987 74.3466C108.703 74.3883 108.455 74.4545 108.243 74.5455C108.031 74.6364 107.866 74.7595 107.749 74.9148C107.631 75.0663 107.572 75.2557 107.572 75.483C107.572 75.8125 107.692 76.0644 107.93 76.2386C108.173 76.4091 108.48 76.4943 108.851 76.4943ZM117.371 72.9545V78H114.95V69.2727H117.257V70.8125H117.359C117.553 70.3049 117.876 69.9034 118.331 69.608C118.786 69.3087 119.337 69.1591 119.984 69.1591C120.59 69.1591 121.119 69.2917 121.57 69.5568C122.02 69.822 122.371 70.2008 122.621 70.6932C122.871 71.1818 122.996 71.7652 122.996 72.4432V78H120.575V72.875C120.579 72.3409 120.443 71.9242 120.166 71.625C119.89 71.322 119.509 71.1705 119.024 71.1705C118.698 71.1705 118.411 71.2405 118.161 71.3807C117.914 71.5208 117.721 71.7254 117.581 71.9943C117.445 72.2595 117.375 72.5795 117.371 72.9545ZM128.847 78.1705C127.953 78.1705 127.184 77.9811 126.54 77.6023C125.9 77.2197 125.407 76.6894 125.062 76.0114C124.722 75.3333 124.551 74.553 124.551 73.6705C124.551 72.7765 124.723 71.9924 125.068 71.3182C125.417 70.6402 125.911 70.1117 126.551 69.733C127.191 69.3504 127.953 69.1591 128.835 69.1591C129.597 69.1591 130.263 69.2973 130.835 69.5739C131.407 69.8504 131.86 70.2386 132.193 70.7386C132.527 71.2386 132.71 71.8258 132.744 72.5H130.46C130.396 72.0644 130.225 71.714 129.949 71.4489C129.676 71.1799 129.318 71.0455 128.875 71.0455C128.5 71.0455 128.172 71.1477 127.892 71.3523C127.616 71.553 127.4 71.8466 127.244 72.233C127.089 72.6193 127.011 73.0871 127.011 73.6364C127.011 74.1932 127.087 74.6667 127.239 75.0568C127.394 75.447 127.612 75.7443 127.892 75.9489C128.172 76.1534 128.5 76.2557 128.875 76.2557C129.152 76.2557 129.4 76.1989 129.619 76.0852C129.843 75.9716 130.027 75.8068 130.17 75.5909C130.318 75.3712 130.415 75.108 130.46 74.8011H132.744C132.706 75.4678 132.525 76.0549 132.199 76.5625C131.877 77.0663 131.432 77.4602 130.864 77.7443C130.295 78.0284 129.623 78.1705 128.847 78.1705ZM138.271 78.1705C137.374 78.1705 136.601 77.9886 135.953 77.625C135.309 77.2576 134.813 76.7386 134.464 76.0682C134.116 75.3939 133.942 74.5966 133.942 73.6761C133.942 72.7784 134.116 71.9905 134.464 71.3125C134.813 70.6345 135.304 70.1061 135.936 69.7273C136.572 69.3485 137.319 69.1591 138.175 69.1591C138.75 69.1591 139.286 69.2519 139.783 69.4375C140.283 69.6193 140.718 69.8939 141.089 70.2614C141.464 70.6288 141.756 71.0909 141.964 71.6477C142.173 72.2008 142.277 72.8485 142.277 73.5909V74.2557H134.908V72.7557H139.999C139.999 72.4072 139.923 72.0985 139.771 71.8295C139.62 71.5606 139.41 71.3504 139.141 71.1989C138.875 71.0436 138.567 70.9659 138.214 70.9659C137.847 70.9659 137.521 71.0511 137.237 71.2216C136.957 71.3883 136.737 71.6136 136.578 71.8977C136.419 72.178 136.338 72.4905 136.334 72.8352V74.2614C136.334 74.6932 136.413 75.0663 136.572 75.3807C136.735 75.6951 136.964 75.9375 137.26 76.108C137.555 76.2784 137.906 76.3636 138.311 76.3636C138.58 76.3636 138.826 76.3258 139.05 76.25C139.273 76.1742 139.464 76.0606 139.624 75.9091C139.783 75.7576 139.904 75.572 139.987 75.3523L142.226 75.5C142.112 76.0379 141.879 76.5076 141.527 76.9091C141.179 77.3068 140.728 77.6174 140.175 77.8409C139.625 78.0606 138.991 78.1705 138.271 78.1705ZM150.776 78.142C150.113 78.142 149.512 77.9716 148.974 77.6307C148.44 77.286 148.016 76.7803 147.702 76.1136C147.391 75.4432 147.236 74.6212 147.236 73.6477C147.236 72.6477 147.397 71.8163 147.719 71.1534C148.041 70.4867 148.469 69.9886 149.003 69.6591C149.541 69.3258 150.13 69.1591 150.77 69.1591C151.259 69.1591 151.666 69.2424 151.991 69.4091C152.321 69.572 152.586 69.7765 152.787 70.0227C152.991 70.2652 153.147 70.5038 153.253 70.7386H153.327V66.3636H155.741V78H153.355V76.6023H153.253C153.139 76.8447 152.978 77.0852 152.77 77.3239C152.565 77.5587 152.298 77.7538 151.969 77.9091C151.643 78.0644 151.245 78.142 150.776 78.142ZM151.543 76.2159C151.933 76.2159 152.262 76.1098 152.531 75.8977C152.804 75.6818 153.012 75.3807 153.156 74.9943C153.304 74.608 153.378 74.1553 153.378 73.6364C153.378 73.1174 153.306 72.6667 153.162 72.2841C153.018 71.9015 152.81 71.6061 152.537 71.3977C152.264 71.1894 151.933 71.0852 151.543 71.0852C151.145 71.0852 150.81 71.1932 150.537 71.4091C150.264 71.625 150.058 71.9242 149.918 72.3068C149.777 72.6894 149.707 73.1326 149.707 73.6364C149.707 74.1439 149.777 74.5928 149.918 74.983C150.062 75.3693 150.268 75.6723 150.537 75.892C150.81 76.108 151.145 76.2159 151.543 76.2159ZM161.675 78.1705C160.792 78.1705 160.029 77.983 159.385 77.608C158.745 77.2292 158.25 76.7027 157.902 76.0284C157.554 75.3504 157.379 74.5644 157.379 73.6705C157.379 72.7689 157.554 71.9811 157.902 71.3068C158.25 70.6288 158.745 70.1023 159.385 69.7273C160.029 69.3485 160.792 69.1591 161.675 69.1591C162.557 69.1591 163.319 69.3485 163.959 69.7273C164.603 70.1023 165.099 70.6288 165.447 71.3068C165.796 71.9811 165.97 72.7689 165.97 73.6705C165.97 74.5644 165.796 75.3504 165.447 76.0284C165.099 76.7027 164.603 77.2292 163.959 77.608C163.319 77.983 162.557 78.1705 161.675 78.1705ZM161.686 76.2955C162.088 76.2955 162.423 76.1818 162.692 75.9545C162.961 75.7235 163.163 75.4091 163.3 75.0114C163.44 74.6136 163.51 74.161 163.51 73.6534C163.51 73.1458 163.44 72.6932 163.3 72.2955C163.163 71.8977 162.961 71.5833 162.692 71.3523C162.423 71.1212 162.088 71.0057 161.686 71.0057C161.281 71.0057 160.94 71.1212 160.663 71.3523C160.391 71.5833 160.184 71.8977 160.044 72.2955C159.908 72.6932 159.839 73.1458 159.839 73.6534C159.839 74.161 159.908 74.6136 160.044 75.0114C160.184 75.4091 160.391 75.7235 160.663 75.9545C160.94 76.1818 161.281 76.2955 161.686 76.2955ZM169.047 78L166.672 69.2727H169.121L170.473 75.1364H170.553L171.962 69.2727H174.365L175.797 75.1023H175.871L177.2 69.2727H179.643L177.274 78H174.712L173.212 72.5114H173.104L171.604 78H169.047ZM183.355 72.9545V78H180.935V69.2727H183.241V70.8125H183.344C183.537 70.3049 183.861 69.9034 184.315 69.608C184.77 69.3087 185.321 69.1591 185.969 69.1591C186.575 69.1591 187.103 69.2917 187.554 69.5568C188.005 69.822 188.355 70.2008 188.605 70.6932C188.855 71.1818 188.98 71.7652 188.98 72.4432V78H186.56V72.875C186.563 72.3409 186.427 71.9242 186.151 71.625C185.874 71.322 185.493 71.1705 185.009 71.1705C184.683 71.1705 184.395 71.2405 184.145 71.3807C183.899 71.5208 183.705 71.7254 183.565 71.9943C183.429 72.2595 183.359 72.5795 183.355 72.9545ZM194.591 78V69.2727H197.011V78H194.591ZM195.807 68.1477C195.447 68.1477 195.138 68.0284 194.881 67.7898C194.627 67.5473 194.5 67.2576 194.5 66.9205C194.5 66.5871 194.627 66.3011 194.881 66.0625C195.138 65.8201 195.447 65.6989 195.807 65.6989C196.167 65.6989 196.473 65.8201 196.727 66.0625C196.985 66.3011 197.114 66.5871 197.114 66.9205C197.114 67.2576 196.985 67.5473 196.727 67.7898C196.473 68.0284 196.167 68.1477 195.807 68.1477ZM201.371 72.9545V78H198.95V69.2727H201.257V70.8125H201.359C201.553 70.3049 201.876 69.9034 202.331 69.608C202.786 69.3087 203.337 69.1591 203.984 69.1591C204.59 69.1591 205.119 69.2917 205.57 69.5568C206.02 69.822 206.371 70.2008 206.621 70.6932C206.871 71.1818 206.996 71.7652 206.996 72.4432V78H204.575V72.875C204.579 72.3409 204.443 71.9242 204.166 71.625C203.89 71.322 203.509 71.1705 203.024 71.1705C202.698 71.1705 202.411 71.2405 202.161 71.3807C201.914 71.5208 201.721 71.7254 201.581 71.9943C201.445 72.2595 201.375 72.5795 201.371 72.9545ZM212.209 68.392V66.3636H221.766V68.392H218.203V78H215.771V68.392H212.209ZM226.006 78.1705C225.108 78.1705 224.335 77.9886 223.688 77.625C223.044 77.2576 222.547 76.7386 222.199 76.0682C221.85 75.3939 221.676 74.5966 221.676 73.6761C221.676 72.7784 221.85 71.9905 222.199 71.3125C222.547 70.6345 223.038 70.1061 223.67 69.7273C224.307 69.3485 225.053 69.1591 225.909 69.1591C226.485 69.1591 227.021 69.2519 227.517 69.4375C228.017 69.6193 228.453 69.8939 228.824 70.2614C229.199 70.6288 229.491 71.0909 229.699 71.6477C229.907 72.2008 230.011 72.8485 230.011 73.5909V74.2557H222.642V72.7557H227.733C227.733 72.4072 227.657 72.0985 227.506 71.8295C227.354 71.5606 227.144 71.3504 226.875 71.1989C226.61 71.0436 226.301 70.9659 225.949 70.9659C225.581 70.9659 225.256 71.0511 224.972 71.2216C224.691 71.3883 224.472 71.6136 224.312 71.8977C224.153 72.178 224.072 72.4905 224.068 72.8352V74.2614C224.068 74.6932 224.148 75.0663 224.307 75.3807C224.47 75.6951 224.699 75.9375 224.994 76.108C225.29 76.2784 225.64 76.3636 226.045 76.3636C226.314 76.3636 226.561 76.3258 226.784 76.25C227.008 76.1742 227.199 76.0606 227.358 75.9091C227.517 75.7576 227.638 75.572 227.722 75.3523L229.96 75.5C229.847 76.0379 229.614 76.5076 229.261 76.9091C228.913 77.3068 228.462 77.6174 227.909 77.8409C227.36 78.0606 226.725 78.1705 226.006 78.1705ZM233.457 69.2727L235.06 72.3239L236.702 69.2727H239.185L236.656 73.6364L239.253 78H236.781L235.06 74.983L233.366 78H230.866L233.457 73.6364L230.957 69.2727H233.457ZM243.064 78.1648C242.507 78.1648 242.011 78.0682 241.575 77.875C241.14 77.678 240.795 77.3883 240.541 77.0057C240.291 76.6193 240.166 76.1383 240.166 75.5625C240.166 75.0777 240.255 74.6705 240.433 74.3409C240.611 74.0114 240.854 73.7462 241.161 73.5455C241.467 73.3447 241.816 73.1932 242.206 73.0909C242.6 72.9886 243.013 72.9167 243.445 72.875C243.952 72.822 244.361 72.7727 244.672 72.7273C244.982 72.678 245.208 72.6061 245.348 72.5114C245.488 72.4167 245.558 72.2765 245.558 72.0909V72.0568C245.558 71.697 245.445 71.4186 245.217 71.2216C244.994 71.0246 244.676 70.9261 244.263 70.9261C243.827 70.9261 243.481 71.0227 243.223 71.2159C242.965 71.4053 242.795 71.6439 242.712 71.9318L240.473 71.75C240.587 71.2197 240.81 70.7614 241.143 70.375C241.477 69.9848 241.907 69.6856 242.433 69.4773C242.964 69.2652 243.577 69.1591 244.274 69.1591C244.759 69.1591 245.223 69.2159 245.666 69.3295C246.113 69.4432 246.509 69.6193 246.854 69.858C247.202 70.0966 247.477 70.4034 247.678 70.7784C247.878 71.1496 247.979 71.5947 247.979 72.1136V78H245.683V76.7898H245.615C245.475 77.0625 245.287 77.303 245.053 77.5114C244.818 77.7159 244.536 77.8769 244.206 77.9943C243.876 78.108 243.496 78.1648 243.064 78.1648ZM243.757 76.4943C244.113 76.4943 244.428 76.4242 244.7 76.2841C244.973 76.1402 245.187 75.947 245.342 75.7045C245.498 75.4621 245.575 75.1875 245.575 74.8807V73.9545C245.5 74.0038 245.395 74.0492 245.263 74.0909C245.134 74.1288 244.988 74.1648 244.825 74.1989C244.662 74.2292 244.5 74.2576 244.337 74.2841C244.174 74.3068 244.026 74.3277 243.893 74.3466C243.609 74.3883 243.361 74.4545 243.149 74.5455C242.937 74.6364 242.772 74.7595 242.655 74.9148C242.537 75.0663 242.479 75.2557 242.479 75.483C242.479 75.8125 242.598 76.0644 242.837 76.2386C243.079 76.4091 243.386 76.4943 243.757 76.4943ZM257.118 71.7614L254.902 71.8977C254.864 71.7083 254.783 71.5379 254.658 71.3864C254.533 71.2311 254.368 71.108 254.163 71.017C253.963 70.9223 253.722 70.875 253.442 70.875C253.067 70.875 252.75 70.9545 252.493 71.1136C252.235 71.2689 252.107 71.4773 252.107 71.7386C252.107 71.947 252.19 72.1231 252.357 72.267C252.523 72.411 252.809 72.5265 253.214 72.6136L254.794 72.9318C255.643 73.1061 256.275 73.3864 256.692 73.7727C257.108 74.1591 257.317 74.6667 257.317 75.2955C257.317 75.8674 257.148 76.3693 256.811 76.8011C256.478 77.233 256.019 77.5701 255.436 77.8125C254.857 78.0511 254.188 78.1705 253.43 78.1705C252.275 78.1705 251.355 77.9299 250.669 77.4489C249.987 76.964 249.588 76.3049 249.47 75.4716L251.851 75.3466C251.923 75.6989 252.097 75.9678 252.374 76.1534C252.65 76.3352 253.004 76.4261 253.436 76.4261C253.86 76.4261 254.201 76.3447 254.459 76.1818C254.72 76.0152 254.853 75.8011 254.857 75.5398C254.853 75.3201 254.76 75.1402 254.578 75C254.396 74.8561 254.116 74.7462 253.737 74.6705L252.226 74.3693C251.374 74.1989 250.739 73.9034 250.322 73.483C249.91 73.0625 249.703 72.5265 249.703 71.875C249.703 71.3144 249.855 70.8314 250.158 70.4261C250.464 70.0208 250.894 69.7083 251.447 69.4886C252.004 69.2689 252.656 69.1591 253.402 69.1591C254.504 69.1591 255.372 69.392 256.004 69.858C256.641 70.3239 257.012 70.9583 257.118 71.7614ZM260.256 78.1477C259.881 78.1477 259.559 78.0152 259.29 77.75C259.025 77.4811 258.892 77.1591 258.892 76.7841C258.892 76.4129 259.025 76.0947 259.29 75.8295C259.559 75.5644 259.881 75.4318 260.256 75.4318C260.619 75.4318 260.938 75.5644 261.21 75.8295C261.483 76.0947 261.619 76.4129 261.619 76.7841C261.619 77.0341 261.555 77.2633 261.426 77.4716C261.301 77.6761 261.136 77.8409 260.932 77.9659C260.727 78.0871 260.502 78.1477 260.256 78.1477Z" fill="#333333"/>
<path d="M3.79261 50V6.36364H21.2642C24.4744 6.36364 27.152 6.83949 29.2969 7.79119C31.4418 8.7429 33.054 10.0639 34.1335 11.7543C35.2131 13.4304 35.7528 15.3622 35.7528 17.5497C35.7528 19.2543 35.4119 20.7528 34.7301 22.0455C34.0483 23.3239 33.1108 24.375 31.9176 25.1989C30.7386 26.0085 29.3892 26.5838 27.8693 26.9247V27.3509C29.5313 27.4219 31.0866 27.8906 32.5355 28.7571C33.9986 29.6236 35.1847 30.8381 36.0938 32.4006C37.0028 33.9489 37.4574 35.7955 37.4574 37.9403C37.4574 40.2557 36.8821 42.3224 35.7315 44.1406C34.5952 45.9446 32.9119 47.3722 30.6818 48.4233C28.4517 49.4744 25.7031 50 22.4361 50H3.79261ZM13.0185 42.4574H20.5398C23.1108 42.4574 24.9858 41.9673 26.1648 40.9872C27.3438 39.9929 27.9332 38.6719 27.9332 37.0241C27.9332 35.8168 27.642 34.7514 27.0597 33.8281C26.4773 32.9048 25.6463 32.1804 24.5668 31.6548C23.5014 31.1293 22.2301 30.8665 20.7528 30.8665H13.0185V42.4574ZM13.0185 24.6236H19.858C21.1222 24.6236 22.2443 24.4034 23.2244 23.9631C24.2188 23.5085 25 22.8693 25.5682 22.0455C26.1506 21.2216 26.4418 20.2344 26.4418 19.0838C26.4418 17.5071 25.8807 16.2358 24.7585 15.2699C23.6506 14.304 22.0739 13.821 20.0284 13.821H13.0185V24.6236ZM58.2049 50.6392C54.8384 50.6392 51.9407 49.9574 49.5117 48.5938C47.0969 47.2159 45.2362 45.2699 43.9293 42.7557C42.6225 40.2273 41.9691 37.2372 41.9691 33.7855C41.9691 30.419 42.6225 27.4645 43.9293 24.9219C45.2362 22.3793 47.0756 20.3977 49.4478 18.9773C51.8342 17.5568 54.6325 16.8466 57.8427 16.8466C60.0018 16.8466 62.0117 17.1946 63.8725 17.8906C65.7475 18.5724 67.381 19.6023 68.7731 20.9801C70.1793 22.358 71.2731 24.0909 72.0543 26.179C72.8356 28.2528 73.2262 30.6818 73.2262 33.4659V35.9588H45.5913V30.3338H64.6822C64.6822 29.027 64.3981 27.8693 63.8299 26.8608C63.2617 25.8523 62.4734 25.0639 61.4648 24.4957C60.4705 23.9134 59.3129 23.6222 57.9918 23.6222C56.614 23.6222 55.3924 23.9418 54.3271 24.581C53.2759 25.206 52.4521 26.0511 51.8555 27.1165C51.2589 28.1676 50.9535 29.3395 50.9393 30.6321V35.9801C50.9393 37.5994 51.2376 38.9986 51.8342 40.1776C52.445 41.3565 53.3043 42.2656 54.4123 42.9048C55.5202 43.544 56.8342 43.8636 58.354 43.8636C59.3626 43.8636 60.2859 43.7216 61.1239 43.4375C61.962 43.1534 62.6793 42.7273 63.2759 42.1591C63.8725 41.5909 64.3271 40.8949 64.6396 40.071L73.0344 40.625C72.6083 42.642 71.7347 44.4034 70.4137 45.9091C69.1069 47.4006 67.4165 48.5653 65.3427 49.4034C63.283 50.2273 60.9038 50.6392 58.2049 50.6392ZM88.2262 6.36364V50H79.1495V6.36364H88.2262ZM95.4972 50V17.2727H104.574V50H95.4972ZM100.057 13.054C98.7074 13.054 97.5497 12.6065 96.5838 11.7116C95.6321 10.8026 95.1562 9.71591 95.1562 8.4517C95.1562 7.2017 95.6321 6.12926 96.5838 5.23438C97.5497 4.32528 98.7074 3.87074 100.057 3.87074C101.406 3.87074 102.557 4.32528 103.509 5.23438C104.474 6.12926 104.957 7.2017 104.957 8.4517C104.957 9.71591 104.474 10.8026 103.509 11.7116C102.557 12.6065 101.406 13.054 100.057 13.054ZM126.76 50.6392C123.393 50.6392 120.495 49.9574 118.066 48.5938C115.652 47.2159 113.791 45.2699 112.484 42.7557C111.177 40.2273 110.524 37.2372 110.524 33.7855C110.524 30.419 111.177 27.4645 112.484 24.9219C113.791 22.3793 115.63 20.3977 118.002 18.9773C120.389 17.5568 123.187 16.8466 126.397 16.8466C128.556 16.8466 130.566 17.1946 132.427 17.8906C134.302 18.5724 135.936 19.6023 137.328 20.9801C138.734 22.358 139.828 24.0909 140.609 26.179C141.39 28.2528 141.781 30.6818 141.781 33.4659V35.9588H114.146V30.3338H133.237C133.237 29.027 132.953 27.8693 132.385 26.8608C131.816 25.8523 131.028 25.0639 130.02 24.4957C129.025 23.9134 127.868 23.6222 126.547 23.6222C125.169 23.6222 123.947 23.9418 122.882 24.581C121.831 25.206 121.007 26.0511 120.41 27.1165C119.814 28.1676 119.508 29.3395 119.494 30.6321V35.9801C119.494 37.5994 119.792 38.9986 120.389 40.1776C121 41.3565 121.859 42.2656 122.967 42.9048C124.075 43.544 125.389 43.8636 126.909 43.8636C127.917 43.8636 128.841 43.7216 129.679 43.4375C130.517 43.1534 131.234 42.7273 131.831 42.1591C132.427 41.5909 132.882 40.8949 133.194 40.071L141.589 40.625C141.163 42.642 140.289 44.4034 138.968 45.9091C137.662 47.4006 135.971 48.5653 133.897 49.4034C131.838 50.2273 129.458 50.6392 126.76 50.6392ZM147.875 50V6.36364H156.951V22.7699H157.228C157.626 21.8892 158.201 20.9943 158.954 20.0852C159.721 19.1619 160.716 18.3949 161.937 17.7841C163.173 17.1591 164.707 16.8466 166.539 16.8466C168.926 16.8466 171.127 17.4716 173.145 18.7216C175.162 19.9574 176.774 21.8253 177.981 24.3253C179.189 26.8111 179.792 29.929 179.792 33.679C179.792 37.3295 179.203 40.4119 178.024 42.9261C176.859 45.4261 175.268 47.3224 173.251 48.6151C171.248 49.8935 169.004 50.5327 166.518 50.5327C164.757 50.5327 163.258 50.2415 162.022 49.6591C160.801 49.0767 159.799 48.3452 159.018 47.4645C158.237 46.5696 157.64 45.6676 157.228 44.7585H156.824V50H147.875ZM156.76 33.6364C156.76 35.5824 157.029 37.2798 157.569 38.7287C158.109 40.1776 158.89 41.3068 159.913 42.1165C160.936 42.9119 162.179 43.3097 163.642 43.3097C165.119 43.3097 166.369 42.9048 167.392 42.0952C168.414 41.2713 169.189 40.1349 169.714 38.6861C170.254 37.223 170.524 35.5398 170.524 33.6364C170.524 31.7472 170.261 30.0852 169.735 28.6506C169.21 27.2159 168.436 26.0937 167.413 25.2841C166.39 24.4744 165.133 24.0696 163.642 24.0696C162.164 24.0696 160.914 24.4602 159.892 25.2415C158.883 26.0227 158.109 27.1307 157.569 28.5653C157.029 30 156.76 31.6903 156.76 33.6364ZM200.763 50.6392C197.397 50.6392 194.499 49.9574 192.07 48.5938C189.656 47.2159 187.795 45.2699 186.488 42.7557C185.181 40.2273 184.528 37.2372 184.528 33.7855C184.528 30.419 185.181 27.4645 186.488 24.9219C187.795 22.3793 189.634 20.3977 192.006 18.9773C194.393 17.5568 197.191 16.8466 200.401 16.8466C202.56 16.8466 204.57 17.1946 206.431 17.8906C208.306 18.5724 209.94 19.6023 211.332 20.9801C212.738 22.358 213.832 24.0909 214.613 26.179C215.394 28.2528 215.785 30.6818 215.785 33.4659V35.9588H188.15V30.3338H207.241C207.241 29.027 206.957 27.8693 206.388 26.8608C205.82 25.8523 205.032 25.0639 204.023 24.4957C203.029 23.9134 201.871 23.6222 200.55 23.6222C199.173 23.6222 197.951 23.9418 196.886 24.581C195.835 25.206 195.011 26.0511 194.414 27.1165C193.817 28.1676 193.512 29.3395 193.498 30.6321V35.9801C193.498 37.5994 193.796 38.9986 194.393 40.1776C195.004 41.3565 195.863 42.2656 196.971 42.9048C198.079 43.544 199.393 43.8636 200.913 43.8636C201.921 43.8636 202.844 43.7216 203.683 43.4375C204.521 43.1534 205.238 42.7273 205.835 42.1591C206.431 41.5909 206.886 40.8949 207.198 40.071L215.593 40.625C215.167 42.642 214.293 44.4034 212.972 45.9091C211.665 47.4006 209.975 48.5653 207.901 49.4034C205.842 50.2273 203.462 50.6392 200.763 50.6392ZM221.708 50V17.2727H230.508V22.983H230.849C231.445 20.9517 232.447 19.4176 233.853 18.3807C235.259 17.3295 236.879 16.804 238.711 16.804C239.165 16.804 239.656 16.8324 240.181 16.8892C240.707 16.946 241.168 17.0241 241.566 17.1236V25.1776C241.14 25.0497 240.55 24.9361 239.798 24.8366C239.045 24.7372 238.356 24.6875 237.731 24.6875C236.396 24.6875 235.202 24.9787 234.151 25.5611C233.114 26.1293 232.29 26.9247 231.68 27.9474C231.083 28.9702 230.785 30.1491 230.785 31.4844V50H221.708Z" fill="#333333"/>
<path d="M259.314 49H249.428L264.491 5.36364H276.381L291.423 49H281.537L270.607 15.3352H270.266L259.314 49ZM258.696 31.848H282.048V39.0497H258.696V31.848ZM317.492 35.0653V16.2727H326.569V49H317.854V43.0554H317.513C316.775 44.973 315.546 46.5142 313.827 47.679C312.123 48.8437 310.042 49.4261 307.585 49.4261C305.397 49.4261 303.472 48.929 301.81 47.9347C300.148 46.9403 298.849 45.527 297.911 43.6946C296.988 41.8622 296.519 39.6676 296.505 37.1108V16.2727H305.582V35.4915C305.596 37.4233 306.114 38.9503 307.137 40.0724C308.16 41.1946 309.531 41.7557 311.249 41.7557C312.343 41.7557 313.366 41.5071 314.317 41.0099C315.269 40.4986 316.036 39.7457 316.619 38.7514C317.215 37.7571 317.506 36.5284 317.492 35.0653ZM351.237 16.2727V23.0909H331.528V16.2727H351.237ZM336.002 8.43182H345.079V38.9432C345.079 39.7812 345.207 40.4347 345.463 40.9034C345.718 41.358 346.074 41.6776 346.528 41.8622C346.997 42.0469 347.537 42.1392 348.147 42.1392C348.574 42.1392 349 42.1037 349.426 42.0327C349.852 41.9474 350.179 41.8835 350.406 41.8409L351.833 48.5952C351.379 48.7372 350.74 48.9006 349.916 49.0852C349.092 49.2841 348.091 49.4048 346.912 49.4474C344.724 49.5327 342.806 49.2415 341.159 48.5739C339.525 47.9062 338.254 46.8693 337.345 45.4631C336.436 44.0568 335.988 42.2812 336.002 40.1364V8.43182ZM371.585 49.6392C368.275 49.6392 365.413 48.9361 362.998 47.5298C360.598 46.1094 358.744 44.1349 357.437 41.6065C356.13 39.0639 355.477 36.1165 355.477 32.7642C355.477 29.3835 356.13 26.429 357.437 23.9006C358.744 21.358 360.598 19.3835 362.998 17.9773C365.413 16.5568 368.275 15.8466 371.585 15.8466C374.895 15.8466 377.75 16.5568 380.15 17.9773C382.565 19.3835 384.426 21.358 385.733 23.9006C387.039 26.429 387.693 29.3835 387.693 32.7642C387.693 36.1165 387.039 39.0639 385.733 41.6065C384.426 44.1349 382.565 46.1094 380.15 47.5298C377.75 48.9361 374.895 49.6392 371.585 49.6392ZM371.627 42.608C373.133 42.608 374.39 42.1818 375.399 41.3295C376.407 40.4631 377.167 39.2841 377.679 37.7926C378.204 36.3011 378.467 34.6037 378.467 32.7003C378.467 30.7969 378.204 29.0994 377.679 27.608C377.167 26.1165 376.407 24.9375 375.399 24.071C374.39 23.2045 373.133 22.7713 371.627 22.7713C370.108 22.7713 368.829 23.2045 367.792 24.071C366.77 24.9375 365.995 26.1165 365.47 27.608C364.958 29.0994 364.703 30.7969 364.703 32.7003C364.703 34.6037 364.958 36.3011 365.47 37.7926C365.995 39.2841 366.77 40.4631 367.792 41.3295C368.829 42.1818 370.108 42.608 371.627 42.608Z" fill="#999999"/>
</svg>
